<?xml version="1.0" encoding="UTF-8"?>
<!DOCTYPE svg PUBLIC "-//W3C//DTD SVG 1.1//EN" "http://www.w3.org/Graphics/SVG/1.1/DTD/svg11.dtd">
<svg version="1.2" width="101.63mm" height="74.96mm" viewBox="0 0 10163 7496" preserveAspectRatio="xMidYMid" fill-rule="evenodd" stroke-width="28.222" stroke-linejoin="round" xmlns="http://www.w3.org/2000/svg" xmlns:ooo="http://xml.openoffice.org/svg/export" xmlns:xlink="http://www.w3.org/1999/xlink" xmlns:presentation="http://sun.com/xmlns/staroffice/presentation" xmlns:smil="http://www.w3.org/2001/SMIL20/" xmlns:anim="urn:oasis:names:tc:opendocument:xmlns:animation:1.0" xml:space="preserve">
 <defs class="ClipPathGroup">
  <clipPath id="presentation_clip_path" clipPathUnits="userSpaceOnUse">
   <rect x="0" y="0" width="10163" height="7496"/>
  </clipPath>
  <clipPath id="presentation_clip_path_shrink" clipPathUnits="userSpaceOnUse">
   <rect x="10" y="7" width="10143" height="7482"/>
  </clipPath>
 </defs>
 <defs class="TextShapeIndex">
  <g ooo:slide="id1" ooo:id-list="id3"/>
 </defs>
 <defs class="EmbeddedBulletChars">
  <g id="bullet-char-template-57356" transform="scale(0.00048828125,-0.00048828125)">
   <path d="M 580,1141 L 1163,571 580,0 -4,571 580,1141 Z"/>
  </g>
  <g id="bullet-char-template-57354" transform="scale(0.00048828125,-0.00048828125)">
   <path d="M 8,1128 L 1137,1128 1137,0 8,0 8,1128 Z"/>
  </g>
  <g id="bullet-char-template-10146" transform="scale(0.00048828125,-0.00048828125)">
   <path d="M 174,0 L 602,739 174,1481 1456,739 174,0 Z M 1358,739 L 309,1346 659,739 1358,739 Z"/>
  </g>
  <g id="bullet-char-template-10132" transform="scale(0.00048828125,-0.00048828125)">
   <path d="M 2015,739 L 1276,0 717,0 1260,543 174,543 174,936 1260,936 717,1481 1274,1481 2015,739 Z"/>
  </g>
  <g id="bullet-char-template-10007" transform="scale(0.00048828125,-0.00048828125)">
   <path d="M 0,-2 C -7,14 -16,27 -25,37 L 356,567 C 262,823 215,952 215,954 215,979 228,992 255,992 264,992 276,990 289,987 310,991 331,999 354,1012 L 381,999 492,748 772,1049 836,1024 860,1049 C 881,1039 901,1025 922,1006 886,937 835,863 770,784 769,783 710,716 594,584 L 774,223 C 774,196 753,168 711,139 L 727,119 C 717,90 699,76 672,76 641,76 570,178 457,381 L 164,-76 C 142,-110 111,-127 72,-127 30,-127 9,-110 8,-76 1,-67 -2,-52 -2,-32 -2,-23 -1,-13 0,-2 Z"/>
  </g>
  <g id="bullet-char-template-10004" transform="scale(0.00048828125,-0.00048828125)">
   <path d="M 285,-33 C 182,-33 111,30 74,156 52,228 41,333 41,471 41,549 55,616 82,672 116,743 169,778 240,778 293,778 328,747 346,684 L 369,508 C 377,444 397,411 428,410 L 1163,1116 C 1174,1127 1196,1133 1229,1133 1271,1133 1292,1118 1292,1087 L 1292,965 C 1292,929 1282,901 1262,881 L 442,47 C 390,-6 338,-33 285,-33 Z"/>
  </g>
  <g id="bullet-char-template-9679" transform="scale(0.00048828125,-0.00048828125)">
   <path d="M 813,0 C 632,0 489,54 383,161 276,268 223,411 223,592 223,773 276,916 383,1023 489,1130 632,1184 813,1184 992,1184 1136,1130 1245,1023 1353,916 1407,772 1407,592 1407,412 1353,268 1245,161 1136,54 992,0 813,0 Z"/>
  </g>
  <g id="bullet-char-template-8226" transform="scale(0.00048828125,-0.00048828125)">
   <path d="M 346,457 C 273,457 209,483 155,535 101,586 74,649 74,723 74,796 101,859 155,911 209,963 273,989 346,989 419,989 480,963 531,910 582,859 608,796 608,723 608,648 583,586 532,535 482,483 420,457 346,457 Z"/>
  </g>
  <g id="bullet-char-template-8211" transform="scale(0.00048828125,-0.00048828125)">
   <path d="M -4,459 L 1135,459 1135,606 -4,606 -4,459 Z"/>
  </g>
  <g id="bullet-char-template-61548" transform="scale(0.00048828125,-0.00048828125)">
   <path d="M 173,740 C 173,903 231,1043 346,1159 462,1274 601,1332 765,1332 928,1332 1067,1274 1183,1159 1299,1043 1357,903 1357,740 1357,577 1299,437 1183,322 1067,206 928,148 765,148 601,148 462,206 346,322 231,437 173,577 173,740 Z"/>
  </g>
 </defs>
 <defs class="TextEmbeddedBitmaps"/>
 <g>
  <g id="id2" class="Master_Slide">
   <g id="bg-id2" class="Background"/>
   <g id="bo-id2" class="BackgroundObjects"/>
  </g>
 </g>
 <g class="SlideGroup">
  <g>
   <g id="container-id1">
    <g id="id1" class="Slide" clip-path="url(#presentation_clip_path)">
     <g class="Page">
      <g class="Graphic">
       <g id="id3">
        <rect class="BoundingBox" stroke="none" fill="none" x="0" y="0" width="10163" height="7496"/>
        <defs>
         <clipPath id="clip_path_1" clipPathUnits="userSpaceOnUse">
          <path d="M 0,0 L 10162,0 10162,7495 0,7495 0,0 Z"/>
         </clipPath>
        </defs>
        <g clip-path="url(#clip_path_1)">
         <path fill="rgb(0,223,252)" stroke="none" d="M -4246,-1402 C -3466,-1505 -2699,-1611 -2053,-2140 -1585,-2521 -1265,-3069 -1151,-3662 -1003,-4439 -1241,-5365 -749,-6048 -484,-6413 -66,-6625 386,-6622 1558,-6611 2008,-5529 2167,-4529 2355,-3355 2304,-2069 3368,-1286 3998,-823 4958,-706 5429,-26 6119,968 4937,1950 4154,2405 3445,2815 2738,3188 1963,3460 1561,3603 1127,3693 706,3617 -325,3429 -323,2355 -841,1648 -1116,1273 -1511,1024 -1963,915 -2783,714 -3651,836 -4482,900 -5275,960 -6336,458 -6056,-516 -5929,-960 -5506,-1185 -5080,-1273 -4805,-1328 -4524,-1365 -4246,-1402 L -4246,-1402 Z"/>
         <path fill="rgb(255,193,7)" stroke="none" d="M 9765,569 C 9376,-1376 8937,-3529 7561,-5045 5834,-6950 3278,-8582 831,-9363 -413,-9760 -1445,-9297 -2103,-8191 -2527,-7476 -2704,-6633 -3177,-5953 -3598,-5349 -4215,-4836 -4418,-4103 -4643,-3296 -4164,-2447 -3606,-1897 -3135,-1431 -2561,-1119 -1889,-1095 -1667,-1087 -1426,-1119 -1175,-1164 -63,-1362 1214,-1823 1540,-286 1672,344 1376,833 1082,1368 720,2021 492,2847 691,3587 889,4334 1648,5080 2455,4667 3384,4191 3609,2968 4627,2569 5265,2320 5836,2598 6294,3069 6585,3371 6805,3736 6995,4111 7432,4974 8315,5717 9294,5053 10704,4101 10035,1907 9765,569 L 9765,569 Z"/>
         <path fill="none" stroke="rgb(0,223,252)" stroke-width="79" stroke-linejoin="miter" d="M 5508,6820 C 5508,6891 5492,6950 5457,7011 5422,7072 5379,7115 5318,7150 5257,7185 5197,7201 5127,7201 5057,7201 4998,7185 4937,7150 4876,7115 4832,7072 4797,7011 4762,6950 4746,6891 4746,6820 4746,6750 4762,6691 4797,6630 4832,6569 4876,6526 4937,6490 4998,6455 5057,6439 5127,6439 5197,6439 5257,6455 5318,6490 5379,6526 5422,6569 5457,6630 5492,6691 5508,6750 5508,6820 L 5508,6820 Z"/>
         <path fill="none" stroke="rgb(0,223,252)" stroke-width="53" stroke-linejoin="miter" d="M 5508,5820 C 5508,5847 5502,5869 5489,5892 5476,5915 5460,5931 5437,5944 5414,5957 5392,5963 5365,5963 5339,5963 5317,5957 5294,5944 5271,5931 5255,5915 5242,5892 5229,5869 5223,5847 5223,5820 5223,5794 5229,5772 5242,5749 5255,5726 5271,5710 5294,5697 5317,5683 5339,5677 5365,5677 5392,5677 5414,5683 5437,5697 5460,5710 5476,5726 5489,5749 5502,5772 5508,5794 5508,5820 L 5508,5820 Z"/>
        </g>
       </g>
      </g>
     </g>
    </g>
   </g>
  </g>
 </g>
</svg>