<?xml version="1.0" encoding="UTF-8"?>
<!DOCTYPE svg PUBLIC "-//W3C//DTD SVG 1.1//EN" "http://www.w3.org/Graphics/SVG/1.1/DTD/svg11.dtd">
<svg version="1.2" width="101.94mm" height="73.87mm" viewBox="0 0 10194 7387" preserveAspectRatio="xMidYMid" fill-rule="evenodd" stroke-width="28.222" stroke-linejoin="round" xmlns="http://www.w3.org/2000/svg" xmlns:ooo="http://xml.openoffice.org/svg/export" xmlns:xlink="http://www.w3.org/1999/xlink" xmlns:presentation="http://sun.com/xmlns/staroffice/presentation" xmlns:smil="http://www.w3.org/2001/SMIL20/" xmlns:anim="urn:oasis:names:tc:opendocument:xmlns:animation:1.0" xml:space="preserve">
 <defs class="ClipPathGroup">
  <clipPath id="presentation_clip_path" clipPathUnits="userSpaceOnUse">
   <rect x="0" y="0" width="10194" height="7387"/>
  </clipPath>
  <clipPath id="presentation_clip_path_shrink" clipPathUnits="userSpaceOnUse">
   <rect x="10" y="7" width="10174" height="7373"/>
  </clipPath>
 </defs>
 <defs class="TextShapeIndex">
  <g ooo:slide="id1" ooo:id-list="id3"/>
 </defs>
 <defs class="EmbeddedBulletChars">
  <g id="bullet-char-template-57356" transform="scale(0.00048828125,-0.00048828125)">
   <path d="M 580,1141 L 1163,571 580,0 -4,571 580,1141 Z"/>
  </g>
  <g id="bullet-char-template-57354" transform="scale(0.00048828125,-0.00048828125)">
   <path d="M 8,1128 L 1137,1128 1137,0 8,0 8,1128 Z"/>
  </g>
  <g id="bullet-char-template-10146" transform="scale(0.00048828125,-0.00048828125)">
   <path d="M 174,0 L 602,739 174,1481 1456,739 174,0 Z M 1358,739 L 309,1346 659,739 1358,739 Z"/>
  </g>
  <g id="bullet-char-template-10132" transform="scale(0.00048828125,-0.00048828125)">
   <path d="M 2015,739 L 1276,0 717,0 1260,543 174,543 174,936 1260,936 717,1481 1274,1481 2015,739 Z"/>
  </g>
  <g id="bullet-char-template-10007" transform="scale(0.00048828125,-0.00048828125)">
   <path d="M 0,-2 C -7,14 -16,27 -25,37 L 356,567 C 262,823 215,952 215,954 215,979 228,992 255,992 264,992 276,990 289,987 310,991 331,999 354,1012 L 381,999 492,748 772,1049 836,1024 860,1049 C 881,1039 901,1025 922,1006 886,937 835,863 770,784 769,783 710,716 594,584 L 774,223 C 774,196 753,168 711,139 L 727,119 C 717,90 699,76 672,76 641,76 570,178 457,381 L 164,-76 C 142,-110 111,-127 72,-127 30,-127 9,-110 8,-76 1,-67 -2,-52 -2,-32 -2,-23 -1,-13 0,-2 Z"/>
  </g>
  <g id="bullet-char-template-10004" transform="scale(0.00048828125,-0.00048828125)">
   <path d="M 285,-33 C 182,-33 111,30 74,156 52,228 41,333 41,471 41,549 55,616 82,672 116,743 169,778 240,778 293,778 328,747 346,684 L 369,508 C 377,444 397,411 428,410 L 1163,1116 C 1174,1127 1196,1133 1229,1133 1271,1133 1292,1118 1292,1087 L 1292,965 C 1292,929 1282,901 1262,881 L 442,47 C 390,-6 338,-33 285,-33 Z"/>
  </g>
  <g id="bullet-char-template-9679" transform="scale(0.00048828125,-0.00048828125)">
   <path d="M 813,0 C 632,0 489,54 383,161 276,268 223,411 223,592 223,773 276,916 383,1023 489,1130 632,1184 813,1184 992,1184 1136,1130 1245,1023 1353,916 1407,772 1407,592 1407,412 1353,268 1245,161 1136,54 992,0 813,0 Z"/>
  </g>
  <g id="bullet-char-template-8226" transform="scale(0.00048828125,-0.00048828125)">
   <path d="M 346,457 C 273,457 209,483 155,535 101,586 74,649 74,723 74,796 101,859 155,911 209,963 273,989 346,989 419,989 480,963 531,910 582,859 608,796 608,723 608,648 583,586 532,535 482,483 420,457 346,457 Z"/>
  </g>
  <g id="bullet-char-template-8211" transform="scale(0.00048828125,-0.00048828125)">
   <path d="M -4,459 L 1135,459 1135,606 -4,606 -4,459 Z"/>
  </g>
  <g id="bullet-char-template-61548" transform="scale(0.00048828125,-0.00048828125)">
   <path d="M 173,740 C 173,903 231,1043 346,1159 462,1274 601,1332 765,1332 928,1332 1067,1274 1183,1159 1299,1043 1357,903 1357,740 1357,577 1299,437 1183,322 1067,206 928,148 765,148 601,148 462,206 346,322 231,437 173,577 173,740 Z"/>
  </g>
 </defs>
 <defs class="TextEmbeddedBitmaps"/>
 <g>
  <g id="id2" class="Master_Slide">
   <g id="bg-id2" class="Background"/>
   <g id="bo-id2" class="BackgroundObjects"/>
  </g>
 </g>
 <g class="SlideGroup">
  <g>
   <g id="container-id1">
    <g id="id1" class="Slide" clip-path="url(#presentation_clip_path)">
     <g class="Page">
      <g class="Graphic">
       <g id="id3">
        <rect class="BoundingBox" stroke="none" fill="none" x="0" y="0" width="10194" height="7387"/>
        <defs>
         <clipPath id="clip_path_1" clipPathUnits="userSpaceOnUse">
          <path d="M 0,0 L 10193,0 10193,7386 0,7386 0,0 Z"/>
         </clipPath>
        </defs>
        <g clip-path="url(#clip_path_1)">
         <path fill="rgb(0,223,252)" stroke="none" d="M 6537,2905 C 6730,3444 6976,4249 6749,4780 6574,5193 6246,5796 5833,5714 5487,5267 4780,4333 4325,3968 3950,3667 3373,3354 3008,3026 2103,2212 1754,1106 1251,0 2167,93 3071,265 3968,513 4545,677 5140,889 5577,1291 6061,1706 6336,2302 6537,2905 L 6537,2905 Z"/>
         <path fill="rgb(255,255,255)" stroke="none" d="M 1307,48 C 2373,556 3354,1217 4193,2034 5103,2934 5714,3989 6397,5045 6407,5077 6468,5045 6439,5013 5270,2831 3624,989 1307,16 1307,19 1286,29 1307,48 L 1307,48 1307,48 Z"/>
         <path fill="rgb(255,255,255)" stroke="none" d="M 1926,1436 C 2661,1394 3302,1426 3944,1831 3987,1862 4026,1788 3987,1759 3418,1386 2590,1159 1918,1386 1897,1405 1897,1436 1926,1436 L 1926,1436 1926,1436 Z"/>
         <path fill="rgb(255,255,255)" stroke="none" d="M 3074,2656 C 3426,2656 3767,2645 4108,2727 4418,2799 4720,2913 5029,3026 5071,3037 5082,2984 5040,2955 4418,2727 3714,2458 3053,2624 3066,2645 3066,2656 3074,2656 L 3074,2656 3074,2656 Z"/>
         <path fill="rgb(255,255,255)" stroke="none" d="M 4442,3743 C 4680,3754 4939,3786 5177,3825 5458,3878 5643,4021 5828,4238 5860,4270 5910,4227 5881,4185 5714,3989 5540,3844 5270,3772 5000,3719 4712,3701 4431,3719 4431,3712 4431,3743 4442,3743 L 4442,3743 4442,3743 Z"/>
         <path fill="rgb(255,255,255)" stroke="none" d="M 3436,587 C 3447,857 3593,1124 3696,1373 3767,1529 3820,1796 4026,1828 4037,1828 4058,1817 4037,1796 3696,1516 3685,958 3458,585 3458,566 3436,566 3436,587 L 3436,587 3436,587 Z"/>
         <path fill="rgb(255,255,255)" stroke="none" d="M 4545,907 C 4616,1643 4844,2365 5103,3050 5114,3082 5175,3061 5156,3040 4886,2346 4743,1632 4577,907 4566,897 4545,897 4545,907 L 4545,907 4545,907 Z"/>
         <path fill="rgb(255,255,255)" stroke="none" d="M 5735,2460 C 5735,3082 5891,3722 5995,4333 6005,4376 6077,4365 6066,4323 5952,3701 5870,3092 5767,2460 5764,2428 5735,2428 5735,2460 L 5735,2460 5735,2460 Z"/>
         <path fill="rgb(255,193,7)" stroke="none" d="M 9706,10010 C 8823,9894 7952,9772 7219,9174 6690,8743 6325,8121 6198,7452 6029,6571 6299,5521 5741,4746 5442,4331 4968,4090 4455,4095 3127,4108 2619,5333 2436,6465 2225,7796 2280,9254 1074,10140 362,10664 -728,10799 -1262,11568 -2042,12698 -704,13809 185,14322 989,14788 1791,15208 2669,15518 3127,15679 3619,15780 4095,15695 5267,15481 5262,14264 5849,13465 6161,13039 6608,12759 7119,12635 8050,12407 9034,12545 9973,12616 10873,12685 12074,12113 11759,11013 11614,10508 11135,10254 10651,10156 10339,10095 10021,10053 9706,10010 L 9706,10010 Z"/>
         <path fill="none" stroke="rgb(0,223,252)" stroke-width="26" stroke-linejoin="miter" d="M 5981,4722 C 7582,3542 9865,4714 9788,6703 9788,6730 9786,6756 9786,6780 9635,9293 13180,9727 11159,10923 9137,12119 11294,12960 9264,13764 7233,14568 6082,16230 3600,13444 1341,10907 -365,11912 66,9751 146,9349 196,8939 196,8529 198,7849 534,6645 2725,6172 4156,5865 5233,5272 5981,4722 L 5981,4722 Z"/>
        </g>
        <defs>
         <clipPath id="clip_path_2" clipPathUnits="userSpaceOnUse">
          <path d="M 0,4250 L 10193,4250 10193,7386 0,7386 0,4250 Z"/>
         </clipPath>
        </defs>
        <g clip-path="url(#clip_path_2)"/>
        <defs>
         <clipPath id="clip_path_3" clipPathUnits="userSpaceOnUse">
          <path d="M 5981,4722 C 7582,3542 9865,4714 9788,6703 9788,6730 9786,6756 9786,6780 9773,6997 9787,7199 9824,7386 L 555,7386 C 895,6900 1537,6428 2725,6172 4156,5865 5233,5272 5981,4722 Z"/>
         </clipPath>
        </defs>
        <g clip-path="url(#clip_path_3)">
         <path fill="rgb(55,125,255)" stroke="none" d="M 13492,10704 L 13483,10711 7114,2289 7123,2283 13492,10704 Z"/>
         <path fill="rgb(55,125,255)" stroke="none" d="M 13492,10704 L 13431,10750 7062,2329 7123,2283 13492,10704 Z"/>
         <path fill="rgb(55,124,254)" stroke="none" d="M 13439,10744 L 13378,10790 7009,2369 7070,2323 13439,10744 Z"/>
         <path fill="rgb(55,124,253)" stroke="none" d="M 13386,10784 L 13325,10830 6956,2409 7017,2363 13386,10784 Z"/>
         <path fill="rgb(55,123,253)" stroke="none" d="M 13333,10824 L 13272,10870 6903,2449 6964,2403 13333,10824 Z"/>
         <path fill="rgb(55,122,252)" stroke="none" d="M 13281,10864 L 13220,10910 6851,2489 6912,2442 13281,10864 Z"/>
         <path fill="rgb(55,122,251)" stroke="none" d="M 13228,10904 L 13167,10950 6798,2528 6859,2482 13228,10904 Z"/>
         <path fill="rgb(55,121,250)" stroke="none" d="M 13175,10944 L 13114,10990 6745,2568 6806,2522 13175,10944 Z"/>
         <path fill="rgb(55,121,250)" stroke="none" d="M 13122,10984 L 13061,11030 6692,2608 6753,2562 13122,10984 Z"/>
         <path fill="rgb(55,120,249)" stroke="none" d="M 13070,11023 L 13009,11069 6640,2648 6701,2602 13070,11023 Z"/>
         <path fill="rgb(54,119,248)" stroke="none" d="M 13017,11063 L 12956,11109 6587,2688 6648,2642 13017,11063 Z"/>
         <path fill="rgb(54,119,247)" stroke="none" d="M 12964,11103 L 12903,11149 6534,2728 6595,2682 12964,11103 Z"/>
         <path fill="rgb(54,118,247)" stroke="none" d="M 12911,11143 L 12850,11189 6482,2768 6542,2722 12911,11143 Z"/>
         <path fill="rgb(54,117,246)" stroke="none" d="M 12859,11183 L 12798,11229 6429,2808 6490,2762 12859,11183 Z"/>
         <path fill="rgb(54,117,245)" stroke="none" d="M 12806,11223 L 12745,11269 6376,2848 6437,2801 12806,11223 Z"/>
         <path fill="rgb(54,116,244)" stroke="none" d="M 12753,11263 L 12692,11309 6323,2887 6384,2841 12753,11263 Z"/>
         <path fill="rgb(54,115,243)" stroke="none" d="M 12700,11303 L 12640,11349 6271,2927 6332,2881 12700,11303 Z"/>
         <path fill="rgb(54,115,243)" stroke="none" d="M 12648,11342 L 12587,11389 6218,2967 6279,2921 12648,11342 Z"/>
         <path fill="rgb(54,114,242)" stroke="none" d="M 12595,11382 L 12534,11428 6165,3007 6226,2961 12595,11382 Z"/>
         <path fill="rgb(54,114,241)" stroke="none" d="M 12542,11422 L 12481,11468 6112,3047 6173,3001 12542,11422 Z"/>
         <path fill="rgb(54,113,240)" stroke="none" d="M 12490,11462 L 12429,11508 6060,3087 6121,3041 12490,11462 Z"/>
         <path fill="rgb(54,112,240)" stroke="none" d="M 12437,11502 L 12376,11548 6007,3127 6068,3081 12437,11502 Z"/>
         <path fill="rgb(54,112,239)" stroke="none" d="M 12384,11542 L 12323,11588 5954,3167 6015,3121 12384,11542 Z"/>
         <path fill="rgb(54,111,238)" stroke="none" d="M 12331,11582 L 12270,11628 5901,3206 5962,3160 12331,11582 Z"/>
         <path fill="rgb(54,110,237)" stroke="none" d="M 12279,11622 L 12218,11668 5849,3246 5910,3200 12279,11622 Z"/>
         <path fill="rgb(54,110,237)" stroke="none" d="M 12226,11662 L 12165,11708 5796,3286 5857,3240 12226,11662 Z"/>
         <path fill="rgb(53,109,236)" stroke="none" d="M 12173,11701 L 12112,11748 5743,3326 5804,3280 12173,11701 Z"/>
         <path fill="rgb(53,108,235)" stroke="none" d="M 12120,11741 L 12059,11787 5690,3366 5751,3320 12120,11741 Z"/>
         <path fill="rgb(53,108,234)" stroke="none" d="M 12068,11781 L 12007,11827 5638,3406 5699,3360 12068,11781 Z"/>
         <path fill="rgb(53,107,234)" stroke="none" d="M 12015,11821 L 11954,11867 5585,3446 5646,3400 12015,11821 Z"/>
         <path fill="rgb(53,106,233)" stroke="none" d="M 11962,11861 L 11901,11907 5532,3486 5593,3440 11962,11861 Z"/>
         <path fill="rgb(53,106,232)" stroke="none" d="M 11909,11901 L 11848,11947 5479,3526 5540,3479 11909,11901 Z"/>
         <path fill="rgb(53,105,231)" stroke="none" d="M 11857,11941 L 11796,11987 5427,3565 5488,3519 11857,11941 Z"/>
         <path fill="rgb(53,105,230)" stroke="none" d="M 11804,11981 L 11743,12027 5374,3605 5435,3559 11804,11981 Z"/>
         <path fill="rgb(53,104,230)" stroke="none" d="M 11751,12021 L 11690,12067 5321,3645 5382,3599 11751,12021 Z"/>
         <path fill="rgb(53,103,229)" stroke="none" d="M 11698,12060 L 11637,12106 5269,3685 5329,3639 11698,12060 Z"/>
         <path fill="rgb(53,103,228)" stroke="none" d="M 11646,12100 L 11585,12146 5216,3725 5277,3679 11646,12100 Z"/>
         <path fill="rgb(53,102,227)" stroke="none" d="M 11593,12140 L 11532,12186 5163,3765 5224,3719 11593,12140 Z"/>
         <path fill="rgb(53,101,227)" stroke="none" d="M 11540,12180 L 11479,12226 5110,3805 5171,3759 11540,12180 Z"/>
         <path fill="rgb(53,101,226)" stroke="none" d="M 11487,12220 L 11427,12266 5058,3845 5119,3799 11487,12220 Z"/>
         <path fill="rgb(53,100,225)" stroke="none" d="M 11435,12260 L 11374,12306 5005,3885 5066,3838 11435,12260 Z"/>
         <path fill="rgb(53,99,224)" stroke="none" d="M 11382,12300 L 11321,12346 4952,3924 5013,3878 11382,12300 Z"/>
         <path fill="rgb(52,99,224)" stroke="none" d="M 11329,12340 L 11268,12386 4899,3964 4960,3918 11329,12340 Z"/>
         <path fill="rgb(52,98,223)" stroke="none" d="M 11276,12379 L 11216,12426 4847,4004 4908,3958 11276,12379 Z"/>
         <path fill="rgb(52,98,222)" stroke="none" d="M 11224,12419 L 11163,12465 4794,4044 4855,3998 11224,12419 Z"/>
         <path fill="rgb(52,97,221)" stroke="none" d="M 11171,12459 L 11110,12505 4741,4084 4802,4038 11171,12459 Z"/>
         <path fill="rgb(52,96,220)" stroke="none" d="M 11118,12499 L 11057,12545 4688,4124 4749,4078 11118,12499 Z"/>
         <path fill="rgb(52,96,220)" stroke="none" d="M 11066,12539 L 11005,12585 4636,4164 4697,4118 11066,12539 Z"/>
         <path fill="rgb(52,95,219)" stroke="none" d="M 11013,12579 L 10952,12625 4583,4204 4644,4158 11013,12579 Z"/>
         <path fill="rgb(52,94,218)" stroke="none" d="M 10960,12619 L 10899,12665 4530,4243 4591,4197 10960,12619 Z"/>
         <path fill="rgb(52,94,217)" stroke="none" d="M 10907,12659 L 10846,12705 4477,4283 4538,4237 10907,12659 Z"/>
         <path fill="rgb(52,93,217)" stroke="none" d="M 10855,12699 L 10794,12745 4425,4323 4486,4277 10855,12699 Z"/>
         <path fill="rgb(52,92,216)" stroke="none" d="M 10802,12738 L 10741,12785 4372,4363 4433,4317 10802,12738 Z"/>
         <path fill="rgb(52,92,215)" stroke="none" d="M 10749,12778 L 10688,12824 4319,4403 4380,4357 10749,12778 Z"/>
         <path fill="rgb(52,91,214)" stroke="none" d="M 10696,12818 L 10635,12864 4266,4443 4327,4397 10696,12818 Z"/>
         <path fill="rgb(52,91,214)" stroke="none" d="M 10644,12858 L 10583,12904 4214,4483 4275,4437 10644,12858 Z"/>
         <path fill="rgb(52,90,213)" stroke="none" d="M 10591,12898 L 10530,12944 4161,4523 4222,4477 10591,12898 Z"/>
         <path fill="rgb(52,89,212)" stroke="none" d="M 10538,12938 L 10477,12984 4108,4563 4169,4516 10538,12938 Z"/>
         <path fill="rgb(52,89,211)" stroke="none" d="M 10485,12978 L 10424,13024 4056,4602 4116,4556 10485,12978 Z"/>
         <path fill="rgb(51,88,211)" stroke="none" d="M 10433,13018 L 10372,13064 4003,4642 4064,4596 10433,13018 Z"/>
         <path fill="rgb(51,87,210)" stroke="none" d="M 10380,13057 L 10319,13104 3950,4682 4011,4636 10380,13057 Z"/>
         <path fill="rgb(51,87,209)" stroke="none" d="M 10327,13097 L 10266,13143 3897,4722 3958,4676 10327,13097 Z"/>
         <path fill="rgb(51,86,208)" stroke="none" d="M 10274,13137 L 10214,13183 3845,4762 3905,4716 10274,13137 Z"/>
         <path fill="rgb(51,85,207)" stroke="none" d="M 10222,13177 L 10161,13223 3792,4802 3853,4756 10222,13177 Z"/>
         <path fill="rgb(51,85,207)" stroke="none" d="M 10169,13217 L 10108,13263 3739,4842 3800,4796 10169,13217 Z"/>
         <path fill="rgb(51,84,206)" stroke="none" d="M 10116,13257 L 10055,13303 3686,4882 3747,4836 10116,13257 Z"/>
         <path fill="rgb(51,84,205)" stroke="none" d="M 10063,13297 L 10003,13343 3634,4922 3695,4875 10063,13297 Z"/>
         <path fill="rgb(51,83,204)" stroke="none" d="M 10011,13337 L 9950,13383 3581,4961 3642,4915 10011,13337 Z"/>
         <path fill="rgb(51,82,204)" stroke="none" d="M 9958,13377 L 9897,13423 3528,5001 3589,4955 9958,13377 Z"/>
         <path fill="rgb(51,82,203)" stroke="none" d="M 9905,13416 L 9844,13463 3475,5041 3536,4995 9905,13416 Z"/>
         <path fill="rgb(51,81,202)" stroke="none" d="M 9853,13456 L 9792,13502 3423,5081 3484,5035 9853,13456 Z"/>
         <path fill="rgb(51,80,201)" stroke="none" d="M 9800,13496 L 9739,13542 3370,5121 3431,5075 9800,13496 Z"/>
         <path fill="rgb(51,80,201)" stroke="none" d="M 9747,13536 L 9686,13582 3317,5161 3378,5115 9747,13536 Z"/>
         <path fill="rgb(51,79,200)" stroke="none" d="M 9694,13576 L 9633,13622 3264,5201 3325,5155 9694,13576 Z"/>
         <path fill="rgb(51,78,199)" stroke="none" d="M 9642,13616 L 9581,13662 3212,5241 3273,5195 9642,13616 Z"/>
         <path fill="rgb(50,78,198)" stroke="none" d="M 9589,13656 L 9528,13702 3159,5280 3220,5234 9589,13656 Z"/>
         <path fill="rgb(50,77,197)" stroke="none" d="M 9536,13696 L 9475,13742 3106,5320 3167,5274 9536,13696 Z"/>
         <path fill="rgb(50,77,197)" stroke="none" d="M 9483,13736 L 9422,13782 3053,5360 3114,5314 9483,13736 Z"/>
         <path fill="rgb(50,76,196)" stroke="none" d="M 9431,13775 L 9370,13822 3001,5400 3062,5354 9431,13775 Z"/>
         <path fill="rgb(50,75,195)" stroke="none" d="M 9378,13815 L 9317,13861 2948,5440 3009,5394 9378,13815 Z"/>
         <path fill="rgb(50,75,194)" stroke="none" d="M 9325,13855 L 9264,13901 2895,5480 2956,5434 9325,13855 Z"/>
         <path fill="rgb(50,74,194)" stroke="none" d="M 9272,13895 L 9211,13941 2843,5520 2903,5474 9272,13895 Z"/>
         <path fill="rgb(50,73,193)" stroke="none" d="M 9220,13935 L 9159,13981 2790,5560 2851,5514 9220,13935 Z"/>
         <path fill="rgb(50,73,192)" stroke="none" d="M 9167,13975 L 9106,14021 2737,5600 2798,5553 9167,13975 Z"/>
         <path fill="rgb(50,72,191)" stroke="none" d="M 9114,14015 L 9053,14061 2684,5639 2745,5593 9114,14015 Z"/>
         <path fill="rgb(50,71,191)" stroke="none" d="M 9061,14055 L 9000,14101 2632,5679 2692,5633 9061,14055 Z"/>
         <path fill="rgb(50,71,190)" stroke="none" d="M 9009,14094 L 8948,14141 2579,5719 2640,5673 9009,14094 Z"/>
         <path fill="rgb(50,70,189)" stroke="none" d="M 8956,14134 L 8895,14180 2526,5759 2587,5713 8956,14134 Z"/>
         <path fill="rgb(50,69,188)" stroke="none" d="M 8903,14174 L 8842,14220 2473,5799 2534,5753 8903,14174 Z"/>
         <path fill="rgb(50,69,188)" stroke="none" d="M 8850,14214 L 8790,14260 2421,5839 2482,5793 8850,14214 Z"/>
         <path fill="rgb(50,68,187)" stroke="none" d="M 8798,14254 L 8737,14300 2368,5879 2429,5833 8798,14254 Z"/>
         <path fill="rgb(49,68,186)" stroke="none" d="M 8745,14294 L 8684,14340 2315,5919 2376,5873 8745,14294 Z"/>
         <path fill="rgb(49,67,185)" stroke="none" d="M 8692,14334 L 8631,14380 2262,5959 2323,5912 8692,14334 Z"/>
         <path fill="rgb(49,66,184)" stroke="none" d="M 8640,14374 L 8579,14420 2210,5998 2271,5952 8640,14374 Z"/>
         <path fill="rgb(49,66,184)" stroke="none" d="M 8587,14414 L 8526,14460 2157,6038 2218,5992 8587,14414 Z"/>
         <path fill="rgb(49,65,183)" stroke="none" d="M 8534,14453 L 8473,14500 2104,6078 2165,6032 8534,14453 Z"/>
         <path fill="rgb(49,64,182)" stroke="none" d="M 8481,14493 L 8420,14539 2051,6118 2112,6072 8481,14493 Z"/>
         <path fill="rgb(49,64,181)" stroke="none" d="M 8429,14533 L 8368,14579 1999,6158 2060,6112 8429,14533 Z"/>
         <path fill="rgb(49,63,181)" stroke="none" d="M 8376,14573 L 8315,14619 1946,6198 2007,6152 8376,14573 Z"/>
         <path fill="rgb(49,62,180)" stroke="none" d="M 8323,14613 L 8262,14659 1893,6238 1954,6192 8323,14613 Z"/>
         <path fill="rgb(49,62,179)" stroke="none" d="M 8270,14653 L 8209,14699 1840,6278 1901,6232 8270,14653 Z"/>
         <path fill="rgb(49,61,178)" stroke="none" d="M 8218,14693 L 8157,14739 1788,6317 1849,6271 8218,14693 Z"/>
         <path fill="rgb(49,61,178)" stroke="none" d="M 8165,14733 L 8104,14779 1735,6357 1796,6311 8165,14733 Z"/>
         <path fill="rgb(49,60,177)" stroke="none" d="M 8112,14773 L 8051,14819 1682,6397 1743,6351 8112,14773 Z"/>
         <path fill="rgb(49,59,176)" stroke="none" d="M 8059,14812 L 7998,14858 1629,6437 1690,6391 8059,14812 Z"/>
         <path fill="rgb(49,59,175)" stroke="none" d="M 8007,14852 L 7946,14898 1577,6477 1638,6431 8007,14852 Z"/>
         <path fill="rgb(49,58,174)" stroke="none" d="M 7954,14892 L 7893,14938 1524,6517 1585,6471 7954,14892 Z"/>
         <path fill="rgb(48,57,174)" stroke="none" d="M 7901,14932 L 7840,14978 1471,6557 1532,6511 7901,14932 Z"/>
         <path fill="rgb(48,57,173)" stroke="none" d="M 7848,14972 L 7787,15018 1419,6597 1479,6551 7848,14972 Z"/>
         <path fill="rgb(48,56,172)" stroke="none" d="M 7796,15012 L 7735,15058 1366,6637 1427,6590 7796,15012 Z"/>
         <path fill="rgb(48,55,171)" stroke="none" d="M 7743,15052 L 7682,15098 1313,6676 1374,6630 7743,15052 Z"/>
         <path fill="rgb(48,55,171)" stroke="none" d="M 7690,15092 L 7629,15138 1260,6716 1321,6670 7690,15092 Z"/>
         <path fill="rgb(48,54,170)" stroke="none" d="M 7637,15131 L 7577,15178 1208,6756 1269,6710 7637,15131 Z"/>
         <path fill="rgb(48,54,169)" stroke="none" d="M 7585,15171 L 7524,15217 1155,6796 1216,6750 7585,15171 Z"/>
         <path fill="rgb(48,53,168)" stroke="none" d="M 7532,15211 L 7471,15257 1102,6836 1163,6790 7532,15211 Z"/>
         <path fill="rgb(48,52,168)" stroke="none" d="M 7479,15251 L 7418,15297 1049,6876 1110,6830 7479,15251 Z"/>
         <path fill="rgb(48,52,167)" stroke="none" d="M 7427,15291 L 7366,15337 997,6916 1058,6870 7427,15291 Z"/>
         <path fill="rgb(48,51,166)" stroke="none" d="M 7374,15331 L 7313,15377 944,6956 1005,6910 7374,15331 Z"/>
         <path fill="rgb(48,50,165)" stroke="none" d="M 7321,15371 L 7260,15417 891,6996 952,6949 7321,15371 Z"/>
         <path fill="rgb(48,50,165)" stroke="none" d="M 7268,15411 L 7207,15457 838,7035 899,6989 7268,15411 Z"/>
         <path fill="rgb(48,49,164)" stroke="none" d="M 7216,15451 L 7155,15497 786,7075 847,7029 7216,15451 Z"/>
         <path fill="rgb(48,48,163)" stroke="none" d="M 7163,15490 L 7102,15537 733,7115 794,7069 7163,15490 Z"/>
         <path fill="rgb(48,48,162)" stroke="none" d="M 7110,15530 L 7049,15576 680,7155 741,7109 7110,15530 Z"/>
         <path fill="rgb(48,47,161)" stroke="none" d="M 7057,15570 L 6996,15616 627,7195 688,7149 7057,15570 Z"/>
         <path fill="rgb(47,47,161)" stroke="none" d="M 7005,15610 L 6944,15656 575,7235 636,7189 7005,15610 Z"/>
         <path fill="rgb(47,46,160)" stroke="none" d="M 6952,15650 L 6891,15696 522,7275 583,7229 6952,15650 Z"/>
         <path fill="rgb(47,45,159)" stroke="none" d="M 6899,15690 L 6838,15736 469,7315 530,7269 6899,15690 Z"/>
         <path fill="rgb(47,45,158)" stroke="none" d="M 6846,15730 L 6785,15776 416,7354 477,7308 6846,15730 Z"/>
         <path fill="rgb(47,44,158)" stroke="none" d="M 6794,15770 L 6733,15816 364,7394 425,7348 6794,15770 Z"/>
         <path fill="rgb(47,43,157)" stroke="none" d="M 6741,15810 L 6680,15856 311,7434 372,7388 6741,15810 Z"/>
         <path fill="rgb(47,43,156)" stroke="none" d="M 6688,15849 L 6627,15895 258,7474 319,7428 6688,15849 Z"/>
         <path fill="rgb(47,42,155)" stroke="none" d="M 6635,15889 L 6574,15935 206,7514 266,7468 6635,15889 Z"/>
         <path fill="rgb(47,41,155)" stroke="none" d="M 6583,15929 L 6522,15975 153,7554 214,7508 6583,15929 Z"/>
         <path fill="rgb(47,41,154)" stroke="none" d="M 6530,15969 L 6469,16015 100,7594 161,7548 6530,15969 Z"/>
         <path fill="rgb(47,40,153)" stroke="none" d="M 6477,16009 L 6416,16055 47,7634 108,7588 6477,16009 Z"/>
         <path fill="rgb(47,40,152)" stroke="none" d="M 6424,16049 L 6364,16095 -5,7674 56,7627 6424,16049 Z"/>
         <path fill="rgb(47,39,151)" stroke="none" d="M 6372,16089 L 6311,16135 -58,7713 3,7667 6372,16089 Z"/>
         <path fill="rgb(47,38,151)" stroke="none" d="M 6319,16129 L 6258,16175 -111,7753 -50,7707 6319,16129 Z"/>
         <path fill="rgb(47,38,150)" stroke="none" d="M 6266,16168 L 6205,16215 -164,7793 -103,7747 6266,16168 Z"/>
         <path fill="rgb(47,37,149)" stroke="none" d="M 6214,16208 L 6153,16254 -216,7833 -155,7787 6214,16208 Z"/>
         <path fill="rgb(46,36,148)" stroke="none" d="M 6161,16248 L 6100,16294 -269,7873 -208,7827 6161,16248 Z"/>
         <path fill="rgb(46,36,148)" stroke="none" d="M 6108,16288 L 6047,16334 -322,7913 -261,7867 6108,16288 Z"/>
         <path fill="rgb(46,35,147)" stroke="none" d="M 6055,16328 L 5994,16374 -375,7953 -314,7907 6055,16328 Z"/>
         <path fill="rgb(46,34,146)" stroke="none" d="M 6003,16368 L 5942,16414 -427,7993 -366,7947 6003,16368 Z"/>
         <path fill="rgb(46,34,145)" stroke="none" d="M 5950,16408 L 5889,16454 -480,8033 -419,7986 5950,16408 Z"/>
         <path fill="rgb(46,33,145)" stroke="none" d="M 5897,16448 L 5836,16494 -533,8072 -472,8026 5897,16448 Z"/>
         <path fill="rgb(46,32,144)" stroke="none" d="M 5844,16488 L 5783,16534 -586,8112 -525,8066 5844,16488 Z"/>
         <path fill="rgb(46,32,143)" stroke="none" d="M 5792,16527 L 5731,16574 -638,8152 -577,8106 5792,16527 Z"/>
         <path fill="rgb(46,31,142)" stroke="none" d="M 5739,16567 L 5678,16613 -691,8192 -630,8146 5739,16567 Z"/>
         <path fill="rgb(46,31,142)" stroke="none" d="M 5686,16607 L 5625,16653 -744,8232 -683,8186 5686,16607 Z"/>
         <path fill="rgb(46,30,141)" stroke="none" d="M 5633,16647 L 5572,16693 -797,8272 -736,8226 5633,16647 Z"/>
         <path fill="rgb(46,29,140)" stroke="none" d="M 5581,16687 L 5520,16733 -849,8312 -788,8266 5581,16687 Z"/>
         <path fill="rgb(46,29,139)" stroke="none" d="M 5528,16727 L 5467,16773 -902,8352 -841,8305 5528,16727 Z"/>
         <path fill="rgb(46,28,138)" stroke="none" d="M 5475,16767 L 5414,16813 -955,8391 -894,8345 5475,16767 Z"/>
         <path fill="rgb(46,27,138)" stroke="none" d="M 5422,16807 L 5361,16853 -1007,8431 -947,8385 5422,16807 Z"/>
         <path fill="rgb(46,27,137)" stroke="none" d="M 5370,16847 L 5309,16893 -1060,8471 -999,8425 5370,16847 Z"/>
         <path fill="rgb(45,26,136)" stroke="none" d="M 5317,16886 L 5256,16932 -1113,8511 -1052,8465 5317,16886 Z"/>
         <path fill="rgb(45,25,135)" stroke="none" d="M 5264,16926 L 5203,16972 -1166,8551 -1105,8505 5264,16926 Z"/>
         <path fill="rgb(45,25,135)" stroke="none" d="M 5211,16966 L 5151,17012 -1218,8591 -1157,8545 5211,16966 Z"/>
         <path fill="rgb(45,24,134)" stroke="none" d="M 5159,17006 L 5098,17052 -1271,8631 -1210,8585 5159,17006 Z"/>
         <path fill="rgb(45,24,133)" stroke="none" d="M 5106,17046 L 5045,17092 -1324,8671 -1263,8625 5106,17046 Z"/>
         <path fill="rgb(45,23,132)" stroke="none" d="M 5053,17086 L 4992,17132 -1377,8711 -1316,8664 5053,17086 Z"/>
         <path fill="rgb(45,22,132)" stroke="none" d="M 5000,17126 L 4940,17172 -1429,8750 -1368,8704 5000,17126 Z"/>
         <path fill="rgb(45,22,131)" stroke="none" d="M 4948,17166 L 4887,17212 -1482,8790 -1421,8744 4948,17166 Z"/>
         <path fill="rgb(45,21,130)" stroke="none" d="M 4895,17205 L 4886,17212 -1483,8791 -1474,8784 4895,17205 Z"/>
        </g>
        <g clip-path="url(#clip_path_2)"/>
        <g clip-path="url(#clip_path_1)">
         <path fill="none" stroke="rgb(0,223,252)" stroke-width="79" stroke-linejoin="miter" d="M 8995,1275 C 8992,1225 8968,1180 8928,1151 8868,1106 8767,1093 8627,1296 8405,1619 8614,1606 8643,1603 8645,1603 8648,1603 8651,1603 L 8844,1590 C 8936,1585 9008,1503 9003,1410 L 8995,1275 8995,1275 Z"/>
        </g>
       </g>
      </g>
     </g>
    </g>
   </g>
  </g>
 </g>
</svg>